<?xml version="1.0" encoding="UTF-8"?>
<svg width="1800" height="480" viewBox="0 0 1800 480" xmlns="http://www.w3.org/2000/svg">
  <defs>
    <linearGradient id="grad" x1="0" y1="0" x2="1" y2="1">
      <stop offset="0%" stop-color="#17614a"/>
      <stop offset="100%" stop-color="#2a66c6"/>
    </linearGradient>
    <style><![CDATA[
      .name{ font: 700 112px 'Inter', system-ui, -apple-system, 'Segoe UI', Roboto, Helvetica, Arial; fill:#131a2a; }
      .sub{ font: 600 40px 'Inter', system-ui, -apple-system, 'Segoe UI', Roboto, Helvetica, Arial; fill:#616d86; letter-spacing:.06em; text-transform:uppercase; }
    ]]></style>
  </defs>
  <!-- Mark -->
  <g transform="translate(20,20)">
    <rect x="0" y="0" width="440" height="440" rx="90" fill="url(#grad)"/>
    <path d="M40,300 C120,240 240,210 320,210 C400,210 520,240 600,300" fill="none" stroke="white" stroke-width="16" stroke-linecap="round" transform="translate(-60,-20) scale(0.9)"/>
    <path d="M60,350 C150,300 240,290 320,290 C400,290 490,300 580,350" fill="none" stroke="white" stroke-width="12" stroke-linecap="round" opacity=".9" transform="translate(-60,-20) scale(0.9)"/>
    <path d="M120,220 L230,330 L420,140" fill="none" stroke="white" stroke-width="30" stroke-linecap="round" stroke-linejoin="round"/>
    <circle cx="330" cy="120" r="26" fill="white" opacity=".96"/>
  </g>
  <!-- Wordmark -->
  <text x="520" y="210" class="name">FieldVista</text>
  <text x="524" y="280" class="sub">Policy Lab</text>
</svg>
