<?xml version="1.0" encoding="UTF-8"?>
<svg width="1024" height="1024" viewBox="0 0 1024 1024" xmlns="http://www.w3.org/2000/svg">
  <defs>
    <linearGradient id="grad" x1="0" y1="0" x2="1" y2="1">
      <stop offset="0%" stop-color="#17614a"/>
      <stop offset="100%" stop-color="#2a66c6"/>
    </linearGradient>
    <filter id="s" x="-10%" y="-10%" width="120%" height="120%">
      <feDropShadow dx="0" dy="8" stdDeviation="14" flood-opacity=".12"/>
    </filter>
  </defs>
  <rect x="64" y="64" width="896" height="896" rx="180" fill="url(#grad)" filter="url(#s)"/>
  <!-- Vista arc (horizon) -->
  <path d="M140,620 C260,520 420,470 512,470 C604,470 764,520 884,620" fill="none" stroke="white" stroke-width="28" stroke-linecap="round"/>
  <!-- Field rows -->
  <path d="M160,700 C300,610 430,590 512,590 C594,590 724,610 864,700" fill="none" stroke="white" stroke-width="20" stroke-linecap="round" opacity=".92"/>
  <path d="M200,760 C320,690 430,680 512,680 C594,680 704,690 824,760" fill="none" stroke="white" stroke-width="16" stroke-linecap="round" opacity=".88"/>
  <!-- Check / V for Vista + verification -->
  <path d="M290,540 L450,710 L760,370" fill="none" stroke="white" stroke-width="44" stroke-linecap="round" stroke-linejoin="round"/>
  <!-- Sun disk -->
  <circle cx="690" cy="350" r="44" fill="white" opacity=".96"/>
</svg>
